<svg id="visual" viewBox="0 0 900 600" width="900" height="600" xmlns="http://www.w3.org/2000/svg" xmlns:xlink="http://www.w3.org/1999/xlink" version="1.1"><g stroke-width="1" stroke-linejoin="bevel"><path d="M378.7 326L402.7 203L289.1 249Z" fill="#b5ccc0" stroke="#b5ccc0"></path><path d="M378.7 326L479.3 203L402.7 203Z" fill="#8daaa5" stroke="#8daaa5"></path><path d="M289.1 249L234.1 321L378.7 326Z" fill="#58787f" stroke="#58787f"></path><path d="M479.3 203L394.7 123L402.7 203Z" fill="#58787f" stroke="#58787f"></path><path d="M402.7 203L394.7 123L289.1 249Z" fill="#b5ccc0" stroke="#b5ccc0"></path><path d="M394.7 123L249.1 96L289.1 249Z" fill="#cbddce" stroke="#cbddce"></path><path d="M289.1 249L128.6 244L234.1 321Z" fill="#7a9998" stroke="#7a9998"></path><path d="M485.3 460L510.3 389L378.7 326Z" fill="#3b5865" stroke="#3b5865"></path><path d="M378.7 326L510.3 389L479.3 203Z" fill="#e1eedd" stroke="#e1eedd"></path><path d="M479.3 203L496.3 94L394.7 123Z" fill="#7a9998" stroke="#7a9998"></path><path d="M394.7 123L358.7 0L249.1 96Z" fill="#e1eedd" stroke="#e1eedd"></path><path d="M608.9 214L496.3 94L479.3 203Z" fill="#e1eedd" stroke="#e1eedd"></path><path d="M249.1 96L128.6 244L289.1 249Z" fill="#7a9998" stroke="#7a9998"></path><path d="M386.7 495L485.3 460L378.7 326Z" fill="#496872" stroke="#496872"></path><path d="M244.1 475L378.7 326L234.1 321Z" fill="#cbddce" stroke="#cbddce"></path><path d="M244.1 475L386.7 495L378.7 326Z" fill="#58787f" stroke="#58787f"></path><path d="M123.6 342L244.1 475L234.1 321Z" fill="#7a9998" stroke="#7a9998"></path><path d="M128.6 244L123.6 342L234.1 321Z" fill="#58787f" stroke="#58787f"></path><path d="M653.9 383L608.9 214L510.3 389Z" fill="#e1eedd" stroke="#e1eedd"></path><path d="M510.3 389L608.9 214L479.3 203Z" fill="#3b5865" stroke="#3b5865"></path><path d="M496.3 94L358.7 0L394.7 123Z" fill="#3b5865" stroke="#3b5865"></path><path d="M358.7 0L243.1 0L249.1 96Z" fill="#7a9998" stroke="#7a9998"></path><path d="M249.1 96L104.6 83L128.6 244Z" fill="#58787f" stroke="#58787f"></path><path d="M609.9 87L498.3 0L496.3 94Z" fill="#7a9998" stroke="#7a9998"></path><path d="M496.3 94L498.3 0L358.7 0Z" fill="#2f4858" stroke="#2f4858"></path><path d="M608.9 214L609.9 87L496.3 94Z" fill="#cbddce" stroke="#cbddce"></path><path d="M165.6 0L104.6 83L249.1 96Z" fill="#2f4858" stroke="#2f4858"></path><path d="M128.6 244L0 271L123.6 342Z" fill="#b5ccc0" stroke="#b5ccc0"></path><path d="M678.9 482L653.9 383L510.3 389Z" fill="#68888b" stroke="#68888b"></path><path d="M750.4 89L676.9 0L609.9 87Z" fill="#a0bbb2" stroke="#a0bbb2"></path><path d="M243.1 0L165.6 0L249.1 96Z" fill="#7a9998" stroke="#7a9998"></path><path d="M0 470L130.6 496L123.6 342Z" fill="#8daaa5" stroke="#8daaa5"></path><path d="M123.6 342L130.6 496L244.1 475Z" fill="#58787f" stroke="#58787f"></path><path d="M285.1 600L370.7 600L386.7 495Z" fill="#a0bbb2" stroke="#a0bbb2"></path><path d="M285.1 600L386.7 495L244.1 475Z" fill="#a0bbb2" stroke="#a0bbb2"></path><path d="M386.7 495L512.3 600L485.3 460Z" fill="#8daaa5" stroke="#8daaa5"></path><path d="M485.3 460L678.9 482L510.3 389Z" fill="#68888b" stroke="#68888b"></path><path d="M130.6 496L285.1 600L244.1 475Z" fill="#7a9998" stroke="#7a9998"></path><path d="M0 92L0 271L128.6 244Z" fill="#8daaa5" stroke="#8daaa5"></path><path d="M0 271L0 356L123.6 342Z" fill="#a0bbb2" stroke="#a0bbb2"></path><path d="M370.7 600L512.3 600L386.7 495Z" fill="#8daaa5" stroke="#8daaa5"></path><path d="M635.9 600L678.9 482L485.3 460Z" fill="#58787f" stroke="#58787f"></path><path d="M750.4 89L609.9 87L608.9 214Z" fill="#3b5865" stroke="#3b5865"></path><path d="M0 0L0 92L104.6 83Z" fill="#3b5865" stroke="#3b5865"></path><path d="M104.6 83L0 92L128.6 244Z" fill="#e1eedd" stroke="#e1eedd"></path><path d="M777.4 237L608.9 214L653.9 383Z" fill="#cbddce" stroke="#cbddce"></path><path d="M609.9 87L676.9 0L498.3 0Z" fill="#7a9998" stroke="#7a9998"></path><path d="M0 356L0 470L123.6 342Z" fill="#3b5865" stroke="#3b5865"></path><path d="M130.6 496L115.6 600L285.1 600Z" fill="#7a9998" stroke="#7a9998"></path><path d="M780.4 326L777.4 237L653.9 383Z" fill="#e1eedd" stroke="#e1eedd"></path><path d="M0 600L115.6 600L130.6 496Z" fill="#3b5865" stroke="#3b5865"></path><path d="M777.4 237L750.4 89L608.9 214Z" fill="#2f4858" stroke="#2f4858"></path><path d="M745.4 478L780.4 326L653.9 383Z" fill="#a0bbb2" stroke="#a0bbb2"></path><path d="M512.3 600L635.9 600L485.3 460Z" fill="#a0bbb2" stroke="#a0bbb2"></path><path d="M678.9 482L745.4 478L653.9 383Z" fill="#8daaa5" stroke="#8daaa5"></path><path d="M165.6 0L0 0L104.6 83Z" fill="#496872" stroke="#496872"></path><path d="M764.4 600L745.4 478L678.9 482Z" fill="#e1eedd" stroke="#e1eedd"></path><path d="M900 0L772.4 0L750.4 89Z" fill="#2f4858" stroke="#2f4858"></path><path d="M750.4 89L772.4 0L676.9 0Z" fill="#b5ccc0" stroke="#b5ccc0"></path><path d="M900 127L750.4 89L777.4 237Z" fill="#496872" stroke="#496872"></path><path d="M0 470L0 600L130.6 496Z" fill="#2f4858" stroke="#2f4858"></path><path d="M635.9 600L764.4 600L678.9 482Z" fill="#7a9998" stroke="#7a9998"></path><path d="M900 364L900 258L780.4 326Z" fill="#e1eedd" stroke="#e1eedd"></path><path d="M900 364L780.4 326L900 448Z" fill="#8daaa5" stroke="#8daaa5"></path><path d="M780.4 326L900 258L777.4 237Z" fill="#b5ccc0" stroke="#b5ccc0"></path><path d="M900 448L780.4 326L745.4 478Z" fill="#58787f" stroke="#58787f"></path><path d="M900 258L900 127L777.4 237Z" fill="#3b5865" stroke="#3b5865"></path><path d="M900 600L900 448L745.4 478Z" fill="#cbddce" stroke="#cbddce"></path><path d="M900 127L900 0L750.4 89Z" fill="#496872" stroke="#496872"></path><path d="M764.4 600L900 600L745.4 478Z" fill="#58787f" stroke="#58787f"></path></g></svg>