<svg id="visual" viewBox="0 0 900 150" width="900" height="150" xmlns="http://www.w3.org/2000/svg" xmlns:xlink="http://www.w3.org/1999/xlink" version="1.1"><rect x="0" y="0" width="900" height="150" fill="#e1eedd"></rect><path d="M0 36L21.5 37C43 38 86 40 128.8 37C171.7 34 214.3 26 257.2 22.5C300 19 343 20 385.8 25.8C428.7 31.7 471.3 42.3 514.2 42C557 41.7 600 30.3 642.8 26.3C685.7 22.3 728.3 25.7 771.2 30.3C814 35 857 41 878.5 44L900 47L900 0L878.5 0C857 0 814 0 771.2 0C728.3 0 685.7 0 642.8 0C600 0 557 0 514.2 0C471.3 0 428.7 0 385.8 0C343 0 300 0 257.2 0C214.3 0 171.7 0 128.8 0C86 0 43 0 21.5 0L0 0Z" fill="#336699" stroke-linecap="round" stroke-linejoin="miter"></path></svg>